<svg id="Layer_1" data-name="Layer 1" xmlns="http://www.w3.org/2000/svg" viewBox="0 0 653.69 286.6"><defs><style>.cls-1{fill:#fff;}</style></defs><path class="cls-1" d="M286.21,527c-.76,0-1-.29-1-1v-36.7c0-.76.29-1.05,1-1.05h10.38c9.43,0,13.13,4.63,13.13,10.14a8.85,8.85,0,0,1-5.46,8.61c5.1,1.47,7.27,5.1,7.27,9.5,0,5.51-3.75,10.55-13.24,10.55ZM290,505.36h6.86c5.92,0,8-3,8-6.68s-2.05-6.51-7.91-6.51H290ZM290,523h8.5c6,0,8.15-3.1,8.15-6.8s-2.05-7-8-7H290Z" transform="translate(-285.16 -252.7)"/><path class="cls-1" d="M327.64,527.58c-6.86,0-9.55-4.93-9.55-10.67v-17c0-.76.29-1.05,1.05-1.05h2.46c.77,0,1.06.29,1.06,1.05V516.5c0,3.28,1.17,7.27,5.92,7.27a8.77,8.77,0,0,0,7.27-3.75V499.91c0-.76.29-1.05,1-1.05h2.46c.77,0,1.06.29,1.06,1.05v26c0,.76-.29,1-1.06,1H337.2c-.77,0-1.06-.29-1.06-1v-2.35A10.2,10.2,0,0,1,327.64,527.58Z" transform="translate(-285.16 -252.7)"/><path class="cls-1" d="M351.43,491.88a3.17,3.17,0,1,1,3.1-3.16A3,3,0,0,1,351.43,491.88ZM350.2,527c-.77,0-1.06-.29-1.06-1v-26c0-.76.29-1.05,1.06-1.05h2.46c.76,0,1,.29,1,1.05v26c0,.76-.29,1-1,1Z" transform="translate(-285.16 -252.7)"/><path class="cls-1" d="M363.5,527c-.76,0-1.06-.29-1.06-1V486c0-.76.3-1,1.06-1H366c.76,0,1.05.29,1.05,1v40c0,.76-.29,1-1.05,1Z" transform="translate(-285.16 -252.7)"/><path class="cls-1" d="M394.79,527c-.76,0-1.05-.29-1.05-1v-2.35c-1.47,2.23-4,4-8.15,4-7.33,0-11.78-5.4-11.78-14.6s4.45-14.71,11.78-14.71c4,0,6.51,1.64,7.85,3.57V486c0-.76.3-1,1.06-1H397c.76,0,1.06.29,1.06,1v40c0,.76-.3,1-1.06,1Zm-8.32-3.11a7.91,7.91,0,0,0,7-3.86V505.83a7.92,7.92,0,0,0-7-3.87c-4.75,0-7.91,3.64-7.91,11S381.72,523.88,386.47,523.88Z" transform="translate(-285.16 -252.7)"/><path class="cls-1" d="M409,491.88a3.17,3.17,0,1,1,3.1-3.16A3,3,0,0,1,409,491.88ZM407.79,527c-.76,0-1.05-.29-1.05-1v-26c0-.76.29-1.05,1.05-1.05h2.47c.76,0,1.05.29,1.05,1.05v26c0,.76-.29,1-1.05,1Z" transform="translate(-285.16 -252.7)"/><path class="cls-1" d="M421.09,527c-.76,0-1-.29-1-1v-26c0-.76.29-1.05,1-1.05h2.18c.76,0,1.05.29,1.05,1.05v2.35a10.46,10.46,0,0,1,8.67-4c7,0,9.73,4.92,9.73,10.67v17c0,.76-.29,1-1.05,1h-2.46c-.77,0-1.06-.29-1.06-1V509.35c0-3.28-1.11-7.27-6.09-7.27a9,9,0,0,0-7.45,3.75v20.11c0,.76-.29,1-1.05,1Z" transform="translate(-285.16 -252.7)"/><path class="cls-1" d="M460.35,539.3c-7.38,0-12.24-2.81-12.24-7.74,0-3,1.87-5,4.62-6.15a4,4,0,0,1-2.57-3.87c0-2.52,1.93-4.16,3.69-5.16a9.57,9.57,0,0,1-3.87-8.09c0-5,3-10,10.32-10a11.75,11.75,0,0,1,3.87.59h8.55c.76,0,1.06.29,1.06,1.05v1.47c0,.76-.35,1.05-1.06,1.05a25.82,25.82,0,0,1-4.45-.53,7.6,7.6,0,0,1,2.75,6.27c0,5.05-2.87,10-10.61,10a13.48,13.48,0,0,1-4.51-.7,4.71,4.71,0,0,0-1.76,3.28c0,.88.36,1.87,3.75,1.87H465c5.1,0,9.14,2.23,9.14,7.15C474.13,535.2,469.32,539.3,460.35,539.3Zm.06-3.28c6.33,0,9.15-2.58,9.15-5.75,0-2.17-1.35-3.87-5.51-3.87h-8.27c-2.28,1.06-3.22,2.64-3.22,4.57C452.56,533.61,454.26,536,460.41,536Zm.12-21.1c3.93,0,6-2.82,6-6.69s-2.11-6.68-6-6.68-6,2.87-6,6.68S456.6,514.92,460.53,514.92Z" transform="translate(-285.16 -252.7)"/><path class="cls-1" d="M509.05,527c-.76,0-1.06-.29-1.06-1v-2.53a10.23,10.23,0,0,1-8.73,4.17c-6.1,0-9.38-3.64-9.38-8.5s3.46-8.68,11.2-8.68a17.65,17.65,0,0,1,6.62,1.12v-2.35c0-3.46-1.05-7-6.62-7a12.05,12.05,0,0,0-7.33,2.34c-.64.47-1,.41-1.46-.23l-.94-1.35a1.06,1.06,0,0,1,.23-1.52,15.58,15.58,0,0,1,9.91-3.11c7.62,0,10.78,4.16,10.78,10.2v17.47c0,.76-.29,1-1,1Zm-1.35-7.15v-5a17,17,0,0,0-6-.94c-5.28,0-7.16,2.11-7.16,5,0,2.34,1.18,4.92,5.52,4.92A9,9,0,0,0,507.7,519.84Z" transform="translate(-285.16 -252.7)"/><path class="cls-1" d="M540,527a1.53,1.53,0,0,1-1.52-.94,123,123,0,0,1-8.32-26.14q-.18-1.05.87-1.05h2.53a1.06,1.06,0,0,1,1.23,1.05,119.17,119.17,0,0,0,6.44,22.51,103.88,103.88,0,0,0,6.86-22.51,1.06,1.06,0,0,1,1.23-1.05h2a1.06,1.06,0,0,1,1.23,1.05,107.27,107.27,0,0,0,6.91,22.51A119.9,119.9,0,0,0,566,499.91a1.06,1.06,0,0,1,1.23-1.05h2.46c.7,0,1,.35.88,1.05a121.34,121.34,0,0,1-8.26,26.14,1.55,1.55,0,0,1-1.53.94h-2.28a1.42,1.42,0,0,1-1.47-.94,98.27,98.27,0,0,1-6.62-20.28c-1.11,6.1-3.28,12.49-6.57,20.22a1.39,1.39,0,0,1-1.46,1Z" transform="translate(-285.16 -252.7)"/><path class="cls-1" d="M587.21,527.58c-9.2,0-13-7.1-13-14.66s3.93-14.65,13-14.65c9.21,0,13,7.09,13,14.65S596.24,527.58,587.21,527.58Zm0-3.64c5.86,0,8.21-5.21,8.21-11s-2.35-11-8.21-11-8.2,5.22-8.2,11S581.35,523.94,587.21,523.94Z" transform="translate(-285.16 -252.7)"/><path class="cls-1" d="M608,527c-.76,0-1-.29-1-1v-26c0-.76.29-1.05,1-1.05h2.17c.76,0,1.06.29,1.06,1.05v2.64c1.58-2.05,3.86-4.28,8-4.28a9.27,9.27,0,0,1,2.46.29,1,1,0,0,1,.76,1.29L622,502c-.17.76-.47.94-1.23.76a9.08,9.08,0,0,0-2.46-.35,8.22,8.22,0,0,0-6.74,3.4v20.11c0,.76-.29,1-1.06,1Z" transform="translate(-285.16 -252.7)"/><path class="cls-1" d="M628.46,527c-.76,0-1.05-.29-1.05-1V486c0-.76.29-1,1.05-1h2.46c.77,0,1.06.29,1.06,1v40c0,.76-.29,1-1.06,1Z" transform="translate(-285.16 -252.7)"/><path class="cls-1" d="M659.76,527c-.77,0-1.06-.29-1.06-1v-2.35c-1.46,2.23-4,4-8.15,4-7.32,0-11.78-5.4-11.78-14.6s4.46-14.71,11.78-14.71c4.05,0,6.51,1.64,7.86,3.57V486c0-.76.29-1,1.05-1h2.46c.77,0,1.06.29,1.06,1v40c0,.76-.29,1-1.06,1Zm-8.33-3.11a7.93,7.93,0,0,0,7-3.86V505.83a7.94,7.94,0,0,0-7-3.87c-4.75,0-7.91,3.64-7.91,11S646.68,523.88,651.43,523.88Z" transform="translate(-285.16 -252.7)"/><path class="cls-1" d="M681.43,502.43c-.76,0-1-.29-1-1.05v-1.47c0-.76.29-1.05,1-1.05h3.75v-6.51c0-.76.29-1.06,1.05-1.06h2.47c.76,0,1,.3,1,1.06v6.51h8c.77,0,1.06.29,1.06,1.05v1.47c0,.76-.29,1.05-1.06,1.05h-8V519c0,3.11.94,4.81,3.69,4.81a6.45,6.45,0,0,0,3.35-.94c.64-.35,1-.24,1.29.41l.64,1.52a1.07,1.07,0,0,1-.47,1.52,10.62,10.62,0,0,1-5.39,1.3c-4.93,0-7.68-2.23-7.68-8.44V502.43Z" transform="translate(-285.16 -252.7)"/><path class="cls-1" d="M705.57,527c-.76,0-1.05-.29-1.05-1V486c0-.76.29-1,1.05-1H708c.77,0,1.06.29,1.06,1v16a10.29,10.29,0,0,1,8.32-3.69c7,0,9.79,5,9.79,10.67v17c0,.76-.29,1-1.06,1h-2.46c-.76,0-1-.29-1-1V509.35c0-3.28-1.12-7.27-6.1-7.27a9,9,0,0,0-7.44,3.75v20.11c0,.76-.29,1-1.06,1Z" transform="translate(-285.16 -252.7)"/><path class="cls-1" d="M753.22,527c-.77,0-1.06-.29-1.06-1v-2.53a10.24,10.24,0,0,1-8.73,4.17c-6.1,0-9.38-3.64-9.38-8.5s3.45-8.68,11.19-8.68a17.71,17.71,0,0,1,6.63,1.12v-2.35c0-3.46-1.06-7-6.63-7a12.05,12.05,0,0,0-7.33,2.34c-.64.47-1,.41-1.46-.23l-.94-1.35a1,1,0,0,1,.24-1.52,15.58,15.58,0,0,1,9.9-3.11c7.62,0,10.79,4.16,10.79,10.2v17.47c0,.76-.3,1-1.06,1Zm-1.35-7.15v-5a17,17,0,0,0-6-.94c-5.28,0-7.15,2.11-7.15,5,0,2.34,1.17,4.92,5.51,4.92A9,9,0,0,0,751.87,519.84Z" transform="translate(-285.16 -252.7)"/><path class="cls-1" d="M762.52,502.43c-.76,0-1-.29-1-1.05v-1.47c0-.76.29-1.05,1-1.05h3.75v-6.51c0-.76.3-1.06,1.06-1.06h2.46c.76,0,1.06.3,1.06,1.06v6.51h8c.76,0,1,.29,1,1.05v1.47c0,.76-.29,1.05-1,1.05h-8V519c0,3.11.94,4.81,3.69,4.81a6.39,6.39,0,0,0,3.34-.94c.65-.35,1-.24,1.29.41l.64,1.52a1.06,1.06,0,0,1-.46,1.52,10.63,10.63,0,0,1-5.4,1.3c-4.92,0-7.68-2.23-7.68-8.44V502.43Z" transform="translate(-285.16 -252.7)"/><path class="cls-1" d="M804.71,527a1.53,1.53,0,0,1-1.52-.94,123.54,123.54,0,0,1-8.32-26.14c-.12-.7.17-1.05.88-1.05h2.51a1.07,1.07,0,0,1,1.24,1.05A119.15,119.15,0,0,0,806,522.42a104.44,104.44,0,0,0,6.85-22.51,1.06,1.06,0,0,1,1.23-1.05h2a1.06,1.06,0,0,1,1.23,1.05,106.68,106.68,0,0,0,6.91,22.51,119.15,119.15,0,0,0,6.45-22.51,1.06,1.06,0,0,1,1.23-1.05h2.46c.71,0,1,.35.88,1.05a121.34,121.34,0,0,1-8.26,26.14,1.53,1.53,0,0,1-1.53.94h-2.28a1.42,1.42,0,0,1-1.47-.94A98.27,98.27,0,0,1,815,505.77c-1.12,6.1-3.28,12.49-6.57,20.22a1.39,1.39,0,0,1-1.46,1Z" transform="translate(-285.16 -252.7)"/><path class="cls-1" d="M851.88,527.58c-9.2,0-13-7.1-13-14.66s3.93-14.65,13-14.65c9.21,0,13,7.09,13,14.65S860.91,527.58,851.88,527.58Zm0-3.64c5.87,0,8.21-5.21,8.21-11s-2.34-11-8.21-11-8.2,5.22-8.2,11S846,523.94,851.88,523.94Z" transform="translate(-285.16 -252.7)"/><path class="cls-1" d="M872.68,527c-.76,0-1-.29-1-1v-26c0-.76.29-1.05,1-1.05h2.17c.76,0,1.06.29,1.06,1.05v2.64c1.58-2.05,3.86-4.28,8-4.28a9.27,9.27,0,0,1,2.46.29,1,1,0,0,1,.76,1.29l-.47,2.17c-.17.76-.47.94-1.23.76a9.08,9.08,0,0,0-2.46-.35,8.22,8.22,0,0,0-6.74,3.4v20.11c0,.76-.29,1-1.05,1Z" transform="translate(-285.16 -252.7)"/><path class="cls-1" d="M911,527a1.45,1.45,0,0,1-1.52-.94,54.47,54.47,0,0,0-9.38-12.6c-1.12.88-2.29,1.7-3.46,2.46v10c0,.76-.29,1-1,1h-2.46c-.77,0-1.06-.29-1.06-1V486c0-.76.29-1,1.06-1h2.46c.76,0,1,.29,1,1v25.56A50.79,50.79,0,0,0,908,499.73a1.8,1.8,0,0,1,1.7-.87h2.87c.65,0,.83.35.47.87A58.48,58.48,0,0,1,903.16,511a55.91,55.91,0,0,1,11.25,15.06c.29.59.12.94-.59.94Z" transform="translate(-285.16 -252.7)"/><path class="cls-1" d="M928.12,527.58a14.9,14.9,0,0,1-9.67-3.05,1,1,0,0,1-.18-1.47l1.11-1.46a.92.92,0,0,1,1.47-.24,11.35,11.35,0,0,0,7.33,2.46c3.34,0,6.09-1.4,6.09-4.21,0-3.11-2.87-4-6.39-4.87-4-1-9.55-1.93-9.55-8.26,0-5.05,4.4-8.21,10.67-8.21a14.91,14.91,0,0,1,8.67,2.34,1,1,0,0,1,.3,1.47l-1.06,1.52c-.41.65-.76.71-1.41.3a11.41,11.41,0,0,0-6.56-1.88c-4,0-6,1.88-6,4.28,0,3.22,2.93,3.75,6.33,4.57,4.46,1.06,9.61,2.52,9.61,8.44C938.84,524.53,934.15,527.58,928.12,527.58Z" transform="translate(-285.16 -252.7)"/><path class="cls-1" d="M634.5,326.85c0-11.39,7.7-22.46,11.92-20.36,4.79,2.4-3.59,13.14-11.92,20.36M582,331c0-9.17,9-26.59,14.58-24.75C603.11,308.44,591.17,326,582,331Zm-9.16,65.54c-4.16.19-6.94-2.48-6.94-6.92,0-11.94,16.56-23.33,29.06-29.45C592.74,376.85,587.11,395.91,572.84,396.56Zm76.37-38.88c-9.43,0-16.66,6.94-16.66,15.27,0,6.95,4.16,12.5,9.72,12.5,2,0,3.88-1.11,3.88-3.61,0-3.61-4.78-4.49-4.41-9.89.23-3.57,3.59-5.94,6.92-5.94,6.66,0,9.78,6.45,9.78,13.12-.28,10.28-7.84,17.43-16.72,17.43-11.67,0-19.16-11.11-19.16-23.06,0-17.77,11.66-24.71,17.77-26.38.06,0,16,2.84,15.47-4.17-.21-3.08-4.81-4.26-8.13-4.4a22.48,22.48,0,0,0-7.4,1.18,9,9,0,0,1-4.11-5.1c11.39-8.62,19.44-16.94,19.44-26.39,0-5-3.33-9.44-9.72-9.44-11.38,0-20,14.44-20,27.49a23.65,23.65,0,0,0,.56,6.39c-7.22,5.28-12.59,8.55-22.31,14.38a50.65,50.65,0,0,1,1.07-8.42c3.33-3.61,7.91-9,7.91-13.18,0-1.94-1.11-3.61-3.34-3.61-5.55,0-9.71,8.33-10.82,14.16-2.5,3.06-7.5,6.95-11.67,6.95-3.33,0-4.44-3.06-4.72-4.17,10.56-3.61,23.61-18.05,23.61-31.1,0-2.78-1.11-8.89-9.44-8.89-12.5,0-23.05,18.61-23.05,33.05-4.45,0-6.11-4.72-6.11-8.33s1.39-7.23,1.39-8.33a2.25,2.25,0,0,0-2.23-2.5c-4.16,0-6.67,5.55-6.67,11.94.29,8.88,6.12,14.44,13.89,15,1.11,5.28,5.84,10.28,11.67,10.28,3.61,0,8-1.11,11.11-3.89-.28,1.95-.56,3.61-.84,5.28-12.22,6.39-21.1,10.83-29.16,18-6.38,5.84-10,13.62-10,19.73,0,8.33,5.28,16.1,16.11,16.1,12.78,0,22.5-10.27,27.22-24.44,2.22-6.66,3.11-16.36,3.66-25.25a251.86,251.86,0,0,0,25.49-16.13,11.36,11.36,0,0,0,2.78,3.34c-5.83,3.06-19.71,11.66-19.71,31.93,0,14.45,9.72,30.55,28.88,30.55,15.83,0,26.66-13,26.66-25.54C667.82,368.23,661.43,357.68,649.21,357.68ZM697,381.53c-.05.09-.21.22-.52.11s-.31-.21-.3-.36a75.92,75.92,0,0,0,3.34-21.38c0-12.22-5-19.72-11.39-19.72-3.89,0-6.66,2.78-6.66,6.94,0,7.5,9.16,8.06,9.16,24.45,0,6.66-1.38,13-3.61,20-10.27,34.71-43.05,50.81-75,50.81-14.72,0-25.18-3-28.3-4.42a.46.46,0,0,1-.13-.55c.07-.19.29-.34.41-.28a69.35,69.35,0,0,0,21.35,3.32c12.22,0,19.45-5,19.45-11.12a6.88,6.88,0,0,0-6.95-6.94c-7.5,0-8.06,9.44-24.16,9.44-6.94,0-13-1.38-20.27-3.6C539,417.66,522.55,385.17,522.58,353a92.35,92.35,0,0,1,4.48-28.3.43.43,0,0,1,.49-.08c.25.08.32.29.29.36a73.19,73.19,0,0,0-3.32,21.36c0,12.22,5,19.44,11.38,19.44a6.58,6.58,0,0,0,6.67-6.66c0-7.5-9.16-8.34-9.16-24.44,0-6.95,1.38-13.06,3.61-20.28,10.55-34.43,43-50.57,75-50.82,14.84-.11,27.84,4.33,28.33,4.72a.45.45,0,0,1,.08.5c-.1.26-.27.29-.36.27a62,62,0,0,0-21.39-3.55c-11.94,0-19.43,5-19.43,11.39a6.64,6.64,0,0,0,6.94,6.66c7.5,0,8.06-9.16,24.16-9.16,6.94,0,13,1.39,20.27,3.61,34.72,10.55,50.52,43.33,50.82,75A87.17,87.17,0,0,1,697,381.53ZM612,257.42A95.53,95.53,0,1,0,707.53,353,95.54,95.54,0,0,0,612,257.42Zm0,195.79A100.26,100.26,0,1,1,712.26,353,100.21,100.21,0,0,1,612,453.21Z" transform="translate(-285.16 -252.7)"/></svg>